<!DOCTYPE svg PUBLIC "-//W3C//DTD SVG 1.1//EN" "http://www.w3.org/Graphics/SVG/1.1/DTD/svg11.dtd">
<!-- Uploaded to: SVG Repo, www.svgrepo.com, Transformed by: SVG Repo Mixer Tools -->
<svg fill="#ffffff" version="1.1" id="Capa_1" xmlns="http://www.w3.org/2000/svg" xmlns:xlink="http://www.w3.org/1999/xlink" width="800px" height="800px" viewBox="0 0 963.8 963.8" xml:space="preserve" stroke="#ffffff">
<g id="SVGRepo_bgCarrier" stroke-width="0"/>
<g id="SVGRepo_tracerCarrier" stroke-linecap="round" stroke-linejoin="round"/>
<g id="SVGRepo_iconCarrier"> <g> <path d="M820.9,800.95c0-28.199-45.7-53.5-117.801-70.6v-96.1c0-39.801-32.199-72-72-72h-81.5c-13.899,0-24.199-13.201-20.5-26.701 c6.301-22.898,24.301-36.1,40.7-51.6c15.5-14.7,24.4-31.9,34.101-50.7c4.699-9.1,11.5-13.3,18.199-20.5 c7.301-7.899,13.801-16.6,19-26c10.801-19.4,16.601-41.5,16.601-63.7c0-24.5-6.7-47.4-18.4-67c0.101-12.3-1.2-37.7-11.399-64.7 c-11.4-30.2-36.601-68.2-91.5-84.2c-23.7-23.7-56.5-38.3-92.5-38.3c-72.301,0-131.2,58.8-131.2,131.2c0,9,0.899,17.7,2.6,26.2 c-6.7,19.7-9.8,40.5-9.1,62.3c1.1,35.8,12.3,70.6,28.5,102.3c7.7,15,10.399,30.899,17.1,46.5c8.101,18.899,19.8,36.3,35.2,50 c15.5,13.699,31.8,27.4,37.6,48.301c3.7,13.398-6.5,26.699-20.5,26.699h-71.5c-39.8,0-72,32.199-72,72v96.1 c-72.1,17.1-117.8,42.4-117.8,70.6c0,29.5,49.8,55.701,127.4,72.801c3.4,0.699,4.9-4,1.7-5.4c-43.2-18-69.4-41.6-69.4-67.5 c0-23.5,21.7-45.199,58.1-62.4v62.4c0,27.701,99,50.201,221.2,50.201S703,828.651,703,800.95v-62.5 c36.4,17.301,58.1,38.9,58.1,62.4c0,25.9-26.199,49.5-69.399,67.5c-3.2,1.301-1.7,6.1,1.7,5.4 C771.2,856.651,820.9,830.45,820.9,800.95z M443.9,93.851c13.6,0,26.699,2.6,38.699,7.3c-27,1.8-55.3,10.3-80.6,24.3 c-25,13.9-46.2,32.4-62.3,54.3C349.2,130.851,392.3,93.851,443.9,93.851z M331.7,267.951c0.7-7.2,1.899-14,3.399-20.4 c1.7-7.1,3.801-13.7,6.301-19.8c2.899-7.2,6.1-13.8,9.6-19.7c14.4-24.8,36.3-45.8,63.1-60.7c25-13.9,53.2-21.5,79.2-21.5 c8.2,0,16.2,0.8,23.7,2.3c2.1,0.4,4.2,0.9,6.2,1.4c7.399,1.8,14.399,4.1,20.899,6.9c7.2,3,13.801,6.6,19.9,10.8 c18.3,12.5,31.8,30.1,40.5,52.7c3,7.9,5.1,15.7,6.6,23s2.4,14.1,2.801,19.9c0.199,2.8,0.399,5.3,0.399,7.6h-10.5H565h-13.6h-14H480 c-12.3,0-23.4,1.2-33.6,3.4c-7.2,1.5-13.801,3.5-20,5.9c-7,2.7-13.4,5.9-19.301,9.5c-8.899,5.4-16.6,11.8-23.199,18.5 c-1,1-1.9,2-2.9,3c-1.9,2.1-3.8,4.3-5.5,6.4c-2.6,3.3-5.1,6.7-7.3,10.1c-3.9,6-7.3,12-10.101,17.9c-5.199,11-8.899,21.9-11.5,31.8 c-0.399-1-0.8-2-1.199-3C332.5,320.75,329.4,292.25,331.7,267.951z M493.9,463.851h-33c-3.301,0-5.7-2.2-4.7-4.4 c2.3-5.2,6.6-9.2,14.3-10.4c0.9-0.1,1.9,0,2.8,0.4l2.101,1c1.3,0.6,2.899,0.6,4.199,0l2.101-1c0.899-0.4,1.8-0.6,2.8-0.4 c7.7,1.101,12,5.2,14.3,10.4C499.6,461.651,497.3,463.851,493.9,463.851z M498.6,481.151c-2.8,6.2-11.199,10.7-21.3,10.7 c-10.1,0-18.5-4.5-21.3-10.7c-1-2.2,1.4-4.4,4.7-4.4h33C497.3,476.851,499.6,479.05,498.6,481.151z M554.1,275.151H621.2 c7.3,14.4,11.399,30.7,11.399,47.9c0,23.6-7.699,45.4-20.8,63.1v-0.101C611.9,340.151,589.1,299.651,554.1,275.151z M963.8,801.95 c0,37.201-70.6,70.5-181.8,92.801c-7.2,1.4-11.1-5.9-4.5-8.5c59.6-23,114.5-52.4,114.5-84.301s-54.8-61.299-114.5-84.299 c-6.6-2.5-2.7-9.9,4.5-8.5C893.2,731.45,963.8,764.751,963.8,801.95z M181.8,894.751C70.6,872.45,0,839.151,0,801.95 c0-37.199,70.6-70.5,181.8-92.799c7.2-1.4,11.1,5.898,4.5,8.5c-59.6,23-114.4,52.299-114.4,84.299s54.8,61.301,114.5,84.301 C193,888.851,189,896.251,181.8,894.751z M795.1,563.45c0,0-1.1-0.799-3-2.6c-13.3-12.699-22.399-30.4-26.3-48.199 c-0.5-2.102-0.8-4.201-1.2-6.301c-5.3-35.6,10.101-71,38-93.2C816,402.55,830.7,394.75,841.4,381.05 c18.699-23.8,23.1-58.2,24.199-87.6c0.101-1.8,0.101-3.3,0.2-4.5c0.101-2.5,0.101-3.9,0.101-3.9s1.1,0.9,2.899,2.7 c0.9,0.9,2,2.1,3.2,3.5c16.8,19,25.7,45.6,25.1,70.8c-0.399,17.1-5.1,34-13.6,48.8c-8.2,14.5-19.2,25.399-32.7,35.199 c-10.6,7.7-21.7,14.9-30.7,24.4c-16.399,17.3-22.199,40-24.3,63.201c-0.5,5.199-0.8,10.299-0.899,15.5 C795,551.05,795.1,563.45,795.1,563.45z M114.4,563.45c0,0-1.1-0.799-3-2.6c-13.3-12.699-22.4-30.4-26.3-48.199 c-0.5-2.102-0.8-4.201-1.2-6.301c-5.3-35.6,10.1-71,38-93.2c13.4-10.601,28.1-18.4,38.8-32.101c18.7-23.8,23.1-58.2,24.2-87.6 c0.1-1.8,0.1-3.3,0.2-4.5c0.1-2.5,0.1-3.9,0.1-3.9s1.1,0.9,2.9,2.7c0.9,0.9,2,2.1,3.2,3.5c16.8,19,25.7,45.6,25.1,70.8 c-0.4,17.1-5.1,34-13.6,48.8c-8.2,14.5-19.2,25.399-32.7,35.199c-10.6,7.7-21.7,14.9-30.7,24.4c-16.4,17.3-22.2,40-24.3,63.201 c-0.5,5.199-0.8,10.299-0.9,15.5C114.4,551.05,114.4,563.45,114.4,563.45z"/> <path d="M114.4,549.05c0.1-5.199,0.4-10.398,0.9-15.5c2.1-23.1,7.9-45.799,24.3-63.199c9-9.5,20.1-16.7,30.7-24.4 c13.5-9.7,24.5-20.6,32.7-35.2c8.4-14.899,13.2-31.8,13.6-48.8c0.6-25.2-8.4-51.8-25.1-70.8c-1.2-1.4-2.3-2.5-3.2-3.5 c-1.8-1.8-2.9-2.7-2.9-2.7s0,1.3-0.1,3.9c0,1.2-0.1,2.7-0.2,4.5c-1.1,29.4-5.4,63.8-24.2,87.6c-10.7,13.6-25.5,21.5-38.8,32.1 c-28,22.2-43.4,57.601-38,93.201c0.3,2.1,0.7,4.199,1.2,6.299c3.9,17.801,13,35.602,26.3,48.201c1.8,1.799,3,2.6,3,2.6 C114.4,563.45,114.4,551.05,114.4,549.05z"/> </g> </g>
</svg>