<svg width="23" height="24" viewBox="0 0 23 24" fill="none" xmlns="http://www.w3.org/2000/svg">
<g id="Icon-contact/social/youtube3">
<path id="Combined Shape" fill-rule="evenodd" clip-rule="evenodd" d="M16.692 12.6226C16.692 13.476 16.5866 14.3294 16.5866 14.3294C16.5866 14.3294 16.4838 15.0556 16.1675 15.3758C15.7669 15.7956 15.3174 15.7976 15.1112 15.8219C13.6358 15.9287 11.4203 15.932 11.4203 15.932C11.4203 15.932 8.67901 15.9069 7.83553 15.8265C7.60093 15.7824 7.07376 15.7956 6.67311 15.3758C6.3568 15.0556 6.254 14.3294 6.254 14.3294C6.254 14.3294 6.14857 13.476 6.14857 12.6226V11.8227C6.14857 10.9693 6.254 10.1166 6.254 10.1166C6.254 10.1166 6.3568 9.38975 6.67311 9.0695C7.07376 8.64973 7.52318 8.64776 7.72943 8.62337C9.20486 8.51662 11.4183 8.51662 11.4183 8.51662H11.4223C11.4223 8.51662 13.6358 8.51662 15.1112 8.62337C15.3174 8.64776 15.7669 8.64973 16.1675 9.0695C16.4838 9.38975 16.5866 10.1166 16.5866 10.1166C16.5866 10.1166 16.692 10.9693 16.692 11.8227V12.6226ZM11.4203 1.68115C5.59701 1.68115 0.876831 6.40134 0.876831 12.2246C0.876831 18.0473 5.59701 22.7681 11.4203 22.7681C17.2436 22.7681 21.9638 18.0473 21.9638 12.2246C21.9638 6.40134 17.2436 1.68115 11.4203 1.68115ZM10.3318 13.592L13.1805 12.1159L10.3312 10.6293L10.3318 13.592Z" fill="white"/>
</g>
</svg>
