<svg width="38" height="36" viewBox="0 0 38 36" fill="none" xmlns="http://www.w3.org/2000/svg">
<path fill-rule="evenodd" clip-rule="evenodd" d="M19.144 0.573486C8.84374 0.573486 0.493774 8.32145 0.493774 17.879C0.493774 27.4367 8.84374 35.1846 19.144 35.1846C29.4443 35.1846 37.7941 27.4367 37.7941 17.879C37.7941 8.32145 29.4443 0.573486 19.144 0.573486ZM28.5802 26.5569C26.9651 26.5592 25.3497 26.5473 23.7347 26.5666C23.353 26.5712 23.1169 26.4623 22.8888 26.1758C21.3009 24.1798 19.6928 22.1976 18.0907 20.2115C17.9741 20.067 17.8525 19.9258 17.706 19.7506C17.2388 20.2191 16.8013 20.6578 16.3635 21.0966C14.7296 22.7338 13.081 24.359 11.4721 26.0171C11.0759 26.4252 10.6764 26.6423 10.0865 26.5638C9.84243 26.5315 9.58923 26.5584 9.1663 26.5584C11.8062 23.9113 14.3518 21.3585 16.9308 18.7723C14.3774 15.6034 11.8379 12.4517 9.23996 9.22755C9.47668 9.21375 9.61044 9.19936 9.74442 9.19926C11.3954 9.19766 13.0467 9.20786 14.6975 9.19047C15.0437 9.18687 15.2505 9.2933 15.4527 9.54733C16.9028 11.3687 18.3691 13.1789 19.8313 14.9919C19.9467 15.1349 20.0703 15.2722 20.287 15.5256C20.4318 15.3351 20.5279 15.1734 20.6591 15.0414C22.4107 13.2784 24.1812 11.531 25.9122 9.7508C26.3074 9.34457 26.7013 9.11772 27.2934 9.19277C27.5505 9.22535 27.8163 9.19827 28.2307 9.19827C25.765 11.6709 23.3971 14.0454 21.0037 16.4454C23.7042 19.7968 26.3862 23.125 29.1213 26.5196C28.8811 26.5368 28.7307 26.5567 28.5802 26.5569Z" fill="white"/>
</svg>
