<svg width="25" height="24" viewBox="0 0 25 24" fill="none" xmlns="http://www.w3.org/2000/svg">
<path fill-rule="evenodd" clip-rule="evenodd" d="M12.158 14.1239C13.3487 14.1239 14.3143 13.161 14.3143 11.9725C14.3143 10.7847 13.3487 9.82183 12.158 9.82183C10.9674 9.82183 10.0017 10.7847 10.0017 11.9725C10.0017 13.161 10.9674 14.1239 12.158 14.1239ZM14.641 9.76941H16.1568C16.3298 9.76941 16.4707 9.62925 16.4707 9.45686V7.94388C16.4707 7.77148 16.3298 7.63133 16.1568 7.63133H14.641C14.4679 7.63133 14.327 7.77148 14.327 7.94388V9.45686C14.327 9.62925 14.4679 9.76941 14.641 9.76941ZM17.7512 16.2362C17.7512 16.9706 17.1548 17.5663 16.4183 17.5663H7.87156C7.13575 17.5663 6.53868 16.9706 6.53868 16.2362V7.68319C6.53868 6.94877 7.13575 6.3538 7.87156 6.3538H16.4183C17.1548 6.3538 17.7512 6.94877 17.7512 7.68319V16.2362ZM12.1449 0.747559C5.95213 0.747559 0.932434 5.76725 0.932434 11.9601C0.932434 18.1521 5.95213 23.1725 12.1449 23.1725C18.3377 23.1725 23.3574 18.1521 23.3574 11.9601C23.3574 5.76725 18.3377 0.747559 12.1449 0.747559ZM15.5688 11.9728C15.5688 13.8488 14.039 15.3758 12.1581 15.3758C10.2772 15.3758 8.7474 13.8488 8.7474 11.9728C8.7474 11.6617 8.78945 11.3596 8.86864 11.073H7.81957V15.949C7.81957 16.1221 7.95972 16.2623 8.13282 16.2623H16.1827C16.3565 16.2623 16.4966 16.1221 16.4966 15.949V11.073H15.4476C15.5268 11.3596 15.5688 11.6617 15.5688 11.9728Z" fill="white"/>
</svg>
