<svg width="24" height="24" viewBox="0 0 24 24" fill="none" xmlns="http://www.w3.org/2000/svg">
<path fill-rule="evenodd" clip-rule="evenodd" d="M14.8717 8.21508L13.8164 8.21578C12.9887 8.21578 12.8283 8.60892 12.8283 9.18566V10.4583H14.8024L14.5452 12.452H12.8283V17.5663H10.7701V12.452H9.04895V10.4583H10.7701V8.98874C10.7701 7.28234 11.8121 6.3538 13.3335 6.3538C14.0623 6.3538 14.6888 6.40776 14.8717 6.43229V8.21508ZM11.96 0.747559C5.76789 0.747559 0.747498 5.76725 0.747498 11.9601C0.747498 18.1521 5.76789 23.1725 11.96 23.1725C18.1528 23.1725 23.1725 18.1521 23.1725 11.9601C23.1725 5.76725 18.1528 0.747559 11.96 0.747559Z" fill="white"/>
</svg>
