<svg width="28" height="14" viewBox="0 0 28 14" fill="none" xmlns="http://www.w3.org/2000/svg">
<path d="M0.000133654 11.6771C-0.000881059 11.3782 0.0650579 11.083 0.193102 10.813C0.321148 10.5429 0.508047 10.3051 0.740067 10.1168L12.7389 0.455058C13.0968 0.160842 13.5456 1.72367e-07 14.0088 1.66843e-07C14.472 1.6132e-07 14.9209 0.160842 15.2787 0.455058L27.2776 10.4569C27.686 10.7964 27.9428 11.2843 27.9915 11.8133C28.0403 12.3422 27.877 12.8689 27.5375 13.2774C27.1981 13.6859 26.7103 13.9428 26.1815 13.9915C25.6527 14.0403 25.1262 13.877 24.7178 13.5374L13.9988 4.5958L3.27982 13.2374C2.98628 13.482 2.62884 13.6374 2.24977 13.6851C1.87071 13.7329 1.4859 13.671 1.14088 13.5069C0.795855 13.3428 0.505058 13.0832 0.302897 12.7589C0.100735 12.4346 -0.00432954 12.0592 0.000133654 11.6771Z" fill="#BAFF29"/>
</svg>
