<?xml version="1.0" encoding="utf-8"?>
<!-- Svg Vector Icons : http://www.onlinewebfonts.com/icon -->
<!DOCTYPE svg PUBLIC "-//W3C//DTD SVG 1.1//EN" "http://www.w3.org/Graphics/SVG/1.1/DTD/svg11.dtd">
<svg version="1.1" xmlns="http://www.w3.org/2000/svg" xmlns:xlink="http://www.w3.org/1999/xlink" x="0px" y="0px" viewBox="0 0 256 256" enable-background="new 0 0 256 256" xml:space="preserve">
<metadata> Svg Vector Icons : http://www.onlinewebfonts.com/icon </metadata>
<g><g><path fill="#000000" d="M80.5,147.7c-2.7,0-4.9,2.2-4.9,4.9c0,2.7,2.2,4.9,4.9,4.9c2.7,0,4.9-2.2,4.9-4.9C85.4,149.8,83.2,147.7,80.5,147.7z M80.5,154.2c-0.9,0-1.6-0.7-1.6-1.6c0-0.9,0.7-1.6,1.6-1.6c0.9,0,1.6,0.7,1.6,1.6C82.1,153.5,81.4,154.2,80.5,154.2z M141.1,142.7c0,15.4,12.5,27.9,27.9,27.9s27.9-12.5,27.9-27.9s-12.5-27.9-27.9-27.9S141.1,127.4,141.1,142.7z M193.5,142.7c0,13.6-11,24.6-24.6,24.6s-24.6-11-24.6-24.6c0-13.6,11-24.6,24.6-24.6S193.5,129.2,193.5,142.7z M82.1,139.5c0-2.7-2.2-4.9-4.9-4.9c-2.7,0-4.9,2.2-4.9,4.9c0,2.7,2.2,4.9,4.9,4.9C79.9,144.4,82.1,142.2,82.1,139.5z M75.6,139.5c0-0.9,0.7-1.6,1.6-1.6c0.9,0,1.6,0.7,1.6,1.6c0,0.9-0.7,1.6-1.6,1.6C76.3,141.1,75.6,140.4,75.6,139.5z M134.6,170.6h-13.1v3.3h13.1V170.6z M232.9,134.6C232.9,85.7,190.3,10,128,10C65.6,10,23.1,85.7,23.1,134.6c0,8.3,1.7,16.2,4.6,23.8c-2.8,2.7-4.6,6.4-4.6,10.6c0,8.2,6.6,14.8,14.7,14.8c1.6,0,3.1-0.4,4.6-0.9c0.3,0.4,0.7,0.7,1.1,1.2c11.2,35.9,44.8,62,84.5,62c39.7,0,73.2-26.1,84.5-62.1c0.3-0.4,0.7-0.7,1.1-1.2c1.5,0.5,3,0.9,4.6,0.9c8.1,0,14.8-6.6,14.8-14.8c0-4.2-1.8-7.9-4.6-10.6C231.2,150.8,232.9,142.8,232.9,134.6z M91.9,30.9c5.5,4.6,12.9,11.4,18.8,19.7c4.3,6,7.6,11.5,10.1,15.9c-6.3-3.3-16.3-8-27-10.4c-10.2-2.3-20.8-2.4-28-2.1C73.5,44.8,82.3,36.9,91.9,30.9z M37.8,173.9c-2.7,0-4.9-2.2-4.9-4.9s2.2-4.9,4.9-4.9c0.8,0,1.3,0.5,2,0.8c0.2,2.6,0.6,5.2,1,7.8C40,173.3,39,173.9,37.8,173.9z M39.6,154.6c-0.6,0-1.2-0.4-1.8-0.4c-0.4,0-0.7,0.2-1.1,0.2c-2.4-6.4-3.8-13-3.8-19.9c0-20.8,9.6-48,25.4-70.7c6.2-0.5,20-1.2,33,1.7c6,1.3,11.9,3.5,17,5.6C69.9,80,41,113.8,39.6,154.6z M128,236.2c-43.4,0-78.7-35.2-78.7-78.7c0-42.1,33.2-76.2,74.8-78.3c0.7,0.4,1.2,0.7,1.2,0.7l0.2-0.9c0.8,0,1.6-0.2,2.5-0.2c43.4,0,78.7,35.2,78.7,78.7S171.4,236.2,128,236.2z M218.1,173.9c-1.2,0-2.2-0.6-3-1.3c0.4-2.5,0.8-5.1,1-7.8c0.7-0.3,1.2-0.8,2-0.8c2.7,0,4.9,2.2,4.9,4.9S220.9,173.9,218.1,173.9z M219.3,154.4c-0.4,0-0.7-0.2-1.1-0.2c-0.6,0-1.2,0.3-1.8,0.3c-1.5-45.7-37.6-82.6-83.1-85.3c-2-4.2-6.8-13.3-14.4-24.1c-5.6-7.8-12.6-14.5-18-19.1c8.5-3.9,17.6-6.2,27.1-6.2c53,0,95,71.3,95,114.7C223,141.4,221.6,148.1,219.3,154.4z M164,132.9c0,2.7,2.2,4.9,4.9,4.9c2.7,0,4.9-2.2,4.9-4.9s-2.2-4.9-4.9-4.9C166.2,128,164,130.2,164,132.9z M170.6,132.9c0,0.9-0.7,1.6-1.6,1.6c-0.9,0-1.6-0.7-1.6-1.6c0-0.9,0.7-1.6,1.6-1.6C169.9,131.3,170.6,132,170.6,132.9z M164,139.5c0-2.7-2.2-4.9-4.9-4.9c-2.7,0-4.9,2.2-4.9,4.9c0,2.7,2.2,4.9,4.9,4.9C161.9,144.4,164,142.2,164,139.5z M157.5,139.5c0-0.9,0.7-1.6,1.6-1.6c0.9,0,1.6,0.7,1.6,1.6c0,0.9-0.7,1.6-1.6,1.6C158.2,141.1,157.5,140.4,157.5,139.5z M114.9,142.7c0-15.4-12.5-27.9-27.9-27.9c-15.4,0-27.9,12.5-27.9,27.9s12.5,27.9,27.9,27.9C102.4,170.6,114.9,158.1,114.9,142.7z M87,167.3c-13.6,0-24.6-11-24.6-24.6c0-13.6,11-24.6,24.6-24.6s24.6,11,24.6,24.6C111.6,156.3,100.6,167.3,87,167.3z M147.7,193.5c0,0-10.1,3.3-19.9,3.3c-9.8,0-19.5-3.3-19.5-3.3c-1.8,0-3.3,1.5-3.3,3.3v3.3c0,1.8,1.5,3.3,3.3,3.3c0,0,6.8,3.3,19.6,3.3c13.4,0,19.8-3.3,19.8-3.3c1.8,0,3.3-1.5,3.3-3.3v-3.3C150.9,195,149.5,193.5,147.7,193.5z M175.5,147.7c-2.7,0-4.9,2.2-4.9,4.9c0,2.7,2.2,4.9,4.9,4.9c2.7,0,4.9-2.2,4.9-4.9C180.4,149.8,178.2,147.7,175.5,147.7z M175.5,154.2c-0.9,0-1.6-0.7-1.6-1.6c0-0.9,0.7-1.6,1.6-1.6c0.9,0,1.6,0.7,1.6,1.6C177.2,153.5,176.4,154.2,175.5,154.2z M162.4,147.7c-2.7,0-4.9,2.2-4.9,4.9c0,2.7,2.2,4.9,4.9,4.9c2.7,0,4.9-2.2,4.9-4.9C167.3,149.8,165.1,147.7,162.4,147.7z M162.4,154.2c-0.9,0-1.6-0.7-1.6-1.6c0-0.9,0.7-1.6,1.6-1.6c0.9,0,1.6,0.7,1.6,1.6C164,153.5,163.3,154.2,162.4,154.2z M91.9,132.9c0-2.7-2.2-4.9-4.9-4.9s-4.9,2.2-4.9,4.9s2.2,4.9,4.9,4.9C89.7,137.8,91.9,135.6,91.9,132.9z M87,134.6c-0.9,0-1.6-0.7-1.6-1.6c0-0.9,0.7-1.6,1.6-1.6c0.9,0,1.6,0.7,1.6,1.6S87.9,134.6,87,134.6z M93.6,147.7c-2.7,0-4.9,2.2-4.9,4.9c0,2.7,2.2,4.9,4.9,4.9c2.7,0,4.9-2.2,4.9-4.9C98.5,149.8,96.3,147.7,93.6,147.7z M93.6,154.2c-0.9,0-1.6-0.7-1.6-1.6c0-0.9,0.7-1.6,1.6-1.6c0.9,0,1.6,0.7,1.6,1.6C95.2,153.5,94.5,154.2,93.6,154.2z M178.8,144.4c2.7,0,4.9-2.2,4.9-4.9s-2.2-4.9-4.9-4.9c-2.7,0-4.9,2.2-4.9,4.9S176.1,144.4,178.8,144.4z M178.8,137.8c0.9,0,1.6,0.7,1.6,1.6c0,0.9-0.7,1.6-1.6,1.6c-0.9,0-1.6-0.7-1.6-1.6S177.9,137.8,178.8,137.8z M96.8,134.6c-2.7,0-4.9,2.2-4.9,4.9c0,2.7,2.2,4.9,4.9,4.9s4.9-2.2,4.9-4.9C101.8,136.7,99.6,134.6,96.8,134.6z M96.8,141.1c-0.9,0-1.6-0.7-1.6-1.6s0.7-1.6,1.6-1.6c0.9,0,1.7,0.7,1.7,1.6C98.5,140.4,97.8,141.1,96.8,141.1z"/></g></g>
</svg>